<svg width="277.925px" height="150.79999999999998px" xmlns="http://www.w3.org/2000/svg" viewBox="111.0375 -0.3999999999999915 277.925 150.79999999999998" style="background: rgb(255, 255, 255);" preserveAspectRatio="xMidYMid"><defs><filter id="editing-extrusion" x="-100%" y="-100%" width="300%" height="300%"><feFlood result="color1" flood-color="#ffffff"></feFlood><feConvolveMatrix order="8,8" divisor="1" kernelMatrix="1 0 0 0 0 0 0 0 0 1 0 0 0 0 0 0 0 0 1 0 0 0 0 0 0 0 0 1 0 0 0 0 0 0 0 0 1 0 0 0 0 0 0 0 0 1 0 0 0 0 0 0 0 0 1 0 0 0 0 0 0 0 0 1" in="SourceAlpha" result="extrude"></feConvolveMatrix><feComposite in="color1" in2="extrude" result="comp-extrude" operator="in"></feComposite><feOffset dx="4" dy="4" in="comp-extrude" result="offset-extrude"></feOffset><feMerge><feMergeNode in="offset-extrude"></feMergeNode><feMergeNode in="SourceGraphic"></feMergeNode></feMerge></filter></defs><g filter="url(#editing-extrusion)"><g transform="translate(156.54000854492188, 110.68999671936035)"><path d="M36.11-12.78L36.11-12.78L36.11-12.78Q37.68-10.79 37.68-6.93L37.68-6.93L37.68-6.93Q37.68-3.07 34.74-0.71L34.74-0.71L34.74-0.71Q31.79 1.66 26.64 1.66L26.64 1.66L26.64 1.66Q23.66 1.66 19.01 1.00L19.01 1.00L19.01 1.00Q9.88-0.42 7.26-0.42L7.26-0.42L7.26-0.42Q4.65-0.42 3.57-0.29L3.57-0.29L3.57-0.29Q2.49-0.17 0.75 0L0.75 0L10.79-54.78L28.97-54.78L20.67-9.13L20.67-9.13Q21.75-8.96 22.74-8.96L22.74-8.96L24.82-8.96L24.82-8.96Q31.79-8.96 36.11-12.78ZM61.34 1.66L61.34 1.66L61.34 1.66Q43.08 1.66 43.08-15.52L43.08-15.52L43.08-15.52Q43.08-27.72 49.80-35.61L49.80-35.61L49.80-35.61Q56.94-43.99 69.31-43.99L69.31-43.99L69.31-43.99Q78.27-43.99 82.83-39.84L82.83-39.84L82.83-39.84Q87.40-35.69 87.40-26.98L87.40-26.98L87.40-26.98Q87.40-13.70 80.26-5.98L80.26-5.98L80.26-5.98Q73.29 1.66 61.34 1.66ZM63.50-34.45L63.50-34.45L63.50-34.45Q62.50-32.20 61.71-28.84L61.71-28.84L61.71-28.84Q60.92-25.48 59.93-20.17L59.93-20.17L59.93-20.17Q58.93-14.86 58.93-8.30L58.93-8.30L58.93-8.30Q58.93-6.14 59.64-4.73L59.64-4.73L59.64-4.73Q60.34-3.32 62.25-3.32L62.25-3.32L62.25-3.32Q64.16-3.32 65.36-4.23L65.36-4.23L65.36-4.23Q66.57-5.15 67.48-7.30L67.48-7.30L67.48-7.30Q69.14-11.12 70.47-18.22L70.47-18.22L70.47-18.22Q71.80-25.32 71.92-28.39L71.92-28.39L71.92-28.39Q72.04-31.46 72.04-33.74L72.04-33.74L72.04-33.74Q72.04-36.02 71.38-37.52L71.38-37.52L71.38-37.52Q70.72-39.01 68.85-39.01L68.85-39.01L68.85-39.01Q66.98-39.01 65.74-37.85L65.74-37.85L65.74-37.85Q64.49-36.69 63.50-34.45ZM98.19-34.69L98.19-34.69L98.19-34.69Q101.01-38.68 105.29-41.33L105.29-41.33L105.29-41.33Q109.56-43.99 114.79-43.99L114.79-43.99L114.79-43.99Q120.02-43.99 122.51-42.33L122.51-42.33L138.78-43.99L133.13-12.12L133.13-12.12Q130.23 4.15 124.09 10.54L124.09 10.54L124.09 10.54Q118.19 16.60 106.74 16.60L106.74 16.60L106.74 16.60Q98.02 16.60 93.04 13.86L93.04 13.86L93.04 13.86Q88.06 11.12 88.06 6.56L88.06 6.56L88.06 6.56Q88.06 3.15 90.64 1.20L90.64 1.20L90.64 1.20Q93.21-0.75 97.19-0.75L97.19-0.75L97.19-0.75Q100.68-0.75 103.34 0.83L103.34 0.83L103.34 0.83Q104.91 1.66 105.66 2.82L105.66 2.82L105.66 2.82Q103.75 4.48 103.75 7.22L103.75 7.22L103.75 7.22Q103.75 10.79 107.07 10.79L107.07 10.79L107.07 10.79Q112.63 10.79 115.79-2.32L115.79-2.32L115.79-2.32Q116.70-5.89 117.45-9.46L117.45-9.46L117.45-9.46Q113.71-4.90 105.24-4.90L105.24-4.90L105.24-4.90Q99.35-4.90 95.95-7.72L95.95-7.72L95.95-7.72Q92.55-10.54 92.55-17.18L92.55-17.18L92.55-17.18Q92.55-21.33 93.96-26.02L93.96-26.02L93.96-26.02Q95.37-30.71 98.19-34.69ZM108.98-16.93L108.98-16.93L108.98-16.93Q108.98-11.29 111.88-11.29L111.88-11.29L111.88-11.29Q113.88-11.29 115.79-13.45L115.79-13.45L115.79-13.45Q117.28-15.19 117.86-17.76L117.86-17.76L122.09-39.09L122.09-39.09Q121.68-39.18 121.26-39.34L121.26-39.34L121.26-39.34Q120.43-39.67 119.35-39.67L119.35-39.67L119.35-39.67Q114.29-39.67 111.30-31.37L111.30-31.37L111.30-31.37Q108.98-24.90 108.98-16.93ZM160.11 1.66L160.11 1.66L160.11 1.66Q141.85 1.66 141.85-15.52L141.85-15.52L141.85-15.52Q141.85-27.72 148.57-35.61L148.57-35.61L148.57-35.61Q155.71-43.99 168.08-43.99L168.08-43.99L168.08-43.99Q177.04-43.99 181.60-39.84L181.60-39.84L181.60-39.84Q186.17-35.69 186.17-26.98L186.17-26.98L186.17-26.98Q186.17-13.70 179.03-5.98L179.03-5.98L179.03-5.98Q172.06 1.66 160.11 1.66ZM162.27-34.45L162.27-34.45L162.27-34.45Q161.27-32.20 160.48-28.84L160.48-28.84L160.48-28.84Q159.69-25.48 158.70-20.17L158.70-20.17L158.70-20.17Q157.70-14.86 157.70-8.30L157.70-8.30L157.70-8.30Q157.70-6.14 158.41-4.73L158.41-4.73L158.41-4.73Q159.11-3.32 161.02-3.32L161.02-3.32L161.02-3.32Q162.93-3.32 164.13-4.23L164.13-4.23L164.13-4.23Q165.34-5.15 166.25-7.30L166.25-7.30L166.25-7.30Q167.91-11.12 169.24-18.22L169.24-18.22L169.24-18.22Q170.56-25.32 170.69-28.39L170.69-28.39L170.69-28.39Q170.81-31.46 170.81-33.74L170.81-33.74L170.81-33.74Q170.81-36.02 170.15-37.52L170.15-37.52L170.15-37.52Q169.49-39.01 167.62-39.01L167.62-39.01L167.62-39.01Q165.75-39.01 164.51-37.85L164.51-37.85L164.51-37.85Q163.26-36.69 162.27-34.45Z" fill="#0a0a0a"></path></g></g><style>text {
  font-size: 64px;
  font-family: Arial Black;
  dominant-baseline: central;
  text-anchor: middle;
}</style></svg>